<?xml version="1.0" encoding="UTF-8"?>
<svg id="Lager_1" xmlns="http://www.w3.org/2000/svg" version="1.1" viewBox="0 0 2834.6 2834.6">
  <!-- Generator: Adobe Illustrator 30.3.0, SVG Export Plug-In . SVG Version: 2.1.3 Build 182)  -->
  <path d="M1792.2,1893.2c5.2-16.1,70.1-14,108.8-10.7,24.3,2.1,21.3,30.8,37,42.1,13.3,9.5,7.2,23,2.2,33.6-6.1,13-40.3,3.8-51.6,2.2-50.8-7-42.6-33.6-69.5-40.4-17.5-4.4-29.4-19.3-26.9-26.9Z" fill="#aeca16" stroke="#1e1e1c" stroke-miterlimit="10" stroke-width="6"/>
  <path d="M1185.9,1878.3c-3.7-5.6-14.5-.3-47.1,2.2-15.4,1.2-21.5.7-32.9,4.1-9,2.7-15.7,6.2-20.9,9-10.4,5.5-17.2,10.5-28,18.7-8.7,6.5-14.7,11.6-20.2,16.8-8.8,8.4-15.9,15.2-14.2,18.7,1.2,2.4,6,2.1,13.5,1.9,0,0,.6,0,40,.4,6.7,0,2.5.2,31.4,1.5,37.8,1.7,17.2.2,27.7.7,16.8.9,23.8,2.2,28.4-2.6,2.9-3,3.8-7.4,4.5-10.5,1.3-5.8-.2-7.2.4-14.2.2-2.7.8-9,4.1-15.3,3.1-6.1,5.5-6,9-11.6.4-.7,8.4-13.8,4.5-19.8Z" fill="#aeca16" stroke="#1e1e1c" stroke-miterlimit="10" stroke-width="6"/>
  <path d="M894.5,1794c3.1,5,8.1,12.3,15.1,20.2,9.4,10.5,12.5,10.8,20.2,19.6,7.5,8.6,16.5,18.9,17.9,33.6.5,4.9,1.7,17.5-7.3,27.5-6.6,7.3-17.7,11.9-27.5,9.5-6.1-1.5-8.3-4.8-26.9-30.8-14-19.6-16.8-23.4-19.1-31.4-1.9-6.8-4.5-16.3-.6-26.4,6.5-16.5,25.4-21.2,28-21.9Z" fill="#aeca16" stroke="#1e1e1c" stroke-miterlimit="10" stroke-width="6"/>
  <path d="M1921.7,992.1c0-7.4,7.7-12.5,23-22.4,10.1-6.6,15.3-9.8,21.3-10.1,9.9-.4,17.4,5,21.3,7.9,4,2.9,12.2,8.8,14,19.1.4,2.3,1.6,9.1-2.2,14-2.4,3-5.9,4.4-15.7,5.6-10.3,1.2-16.2.8-28.6.6-18.7-.3-23.5.4-28-3.9-.9-.8-5.1-5-5-10.7Z" fill="#aeca16" stroke="#1e1e1c" stroke-miterlimit="10" stroke-width="6"/>
  <path d="M1343.6,1043.2c11.9-.2,22.4,1.2,47.1,0,23.5-1.1,30.8-3.3,49.3-4.5,14.5-1,39.8-2.6,65,2.2,28.6,5.5,47.2,17.4,83,40.4,31.2,20,27.7,22.4,62.8,44.9,29.5,18.9,35.3,19.4,62.8,38.1,25.9,17.7,38.9,26.5,51.6,40.4,21.8,23.9,19,33.7,44.9,60.6,15.2,15.8,19.4,15.8,29.2,29.2,7.4,10.1,14.1,22.6,22.4,51.6,6.2,21.6,13.2,46,15.7,80.7,2,28.6,5.2,72.5-13.5,121.1-4.1,10.8-12.5,25.9-29.2,56.1-16.6,30.1-25.6,46.1-40.4,65-3.4,4.4-7,8.7-42.6,44.9-31.8,32.3-47.7,48.4-62.8,62.8,0,0-22,20.9-58.3,53.8h0s-11.3,27-26.9,40.4c-10.6,9.1-19.4,8.5-49.3,13.5-58.1,9.5-56.1,16.7-89.7,17.9-13.7.5-29.3-1.2-60.6-4.5-33.3-3.5-49.9-5.3-65-9-29.4-7.1-32.4-14.3-94.2-44.9-51.9-25.7-53.7-22.5-78.5-38.1-17.5-11-34.1-25.3-67.3-53.8-52.9-45.5-69.2-64.6-78.5-76.3-15.4-19.3-24.6-34.5-31.4-51.6-7-17.4-7.9-27.9-11.2-42.6-12-53.9-31.8-60.4-44.9-107.7-9.1-33-7.8-59.8-6.7-80.7,1.2-23.6,3.3-66,26.9-109.9,9.7-18,27.4-36.6,62.8-74,42.8-45.2,64.2-67.8,78.5-76.3,4.7-2.8,16.1-9.2,24.7-22.4,9.7-15,5.7-23.1,11.2-31.4,14.7-21.9,60.3,9,121.1-4.5,42.2-9.4,48.9-30.6,92-31.4Z" fill="#aeca16" stroke="#1e1e1c" stroke-miterlimit="10" stroke-width="11"/>
  <path d="M1864,1350.5c6.4-7.2,15.2-18.4,22.4-33.6,8.2-17.4,8.6-27.6,15.7-76.3,7.4-51,9-53.9,6.7-65-4.8-23.1-14.3-23-26.9-53.8-10.2-25-21.4-52.3-11.2-76.3,8.7-20.5,22.9-15,47.1-49.3,7-10,11.2-18.2,22.4-26.9,7.8-6.1,19.7-15.4,33.6-13.5,20.2,2.9,37.4,28.6,31.4,42.6-6.1,14.3-35.4,13.7-47.1,13.5-13.1-.3-33.9-9.2-41.5-11.8" fill="none" stroke="#1e1e1c" stroke-miterlimit="10" stroke-width="11"/>
  <path d="M958.9,1536.6c-6.5,5.2-15.8,14-23.6,26.9-6.7,11.1-8.7,19.6-15.7,71.8-8.2,61.1-8.3,70.6-7.8,78.5,0,1,.6,11.1,0,24.7-.7,15.1-1.1,22.8-4.5,30.3-3.6,8-8.8,12.8-19.1,22.4-13.9,13-18,12.6-22.4,20.2-7,11.9-4.5,25.5-3.4,31.4,2.1,11.4,11.2,23.1,29.2,46,12.9,16.4,15.5,18.2,19.1,19.1,15.1,3.7,36-11.6,40.4-30.3,3.1-13-2.6-24.3-6.7-32.5-4.8-9.5-10-12.1-23.6-26.9-8.1-8.8-18.6-25.4-22.4-30.3" fill="none" stroke="#1e1e1c" stroke-miterlimit="10" stroke-width="11"/>
  <path d="M1220.2,1832.7c3.4,32-1.5,41.4-6.7,43.7-4.6,2.1-8.8-1.6-22.4-3.4-7.7-1-13.4-.8-24.7,0-36.9,2.5-55.4,3.8-61.7,5.6-15.9,4.6-27.4,12.4-50.5,28-2.3,1.6-18,12.4-32.5,31.4-5.7,7.4-6.1,9.5-5.6,11.2,2.6,9,30.2,4.5,77.4,5.6,46.4,1.1,67.3,6.6,75.1-5.6,5-7.7-.6-14.1,3.4-30.3,3.8-15.5,15.2-31.7,22.4-38.7" fill="none" stroke="#1e1e1c" stroke-miterlimit="10" stroke-width="11"/>
  <path d="M1702.5,1765.4c21.7,20,30,38.7,33.6,50.5,6.2,20,7.9,37,7.9,37,1.8,18.6-.8,24.3,4.5,29.2,3.6,3.3,13.7,4.4,23.1,4.7,9.4.3,17.9-.2,18.4-.2,20.7-1.5,46.7-3.3,76.3-7.9,21.5-3.3,21.2-4.4,25.8-3.4,4.7,1.1,14.5,4.4,37,37,16.3,23.7,24.4,35.7,20.2,43.7-4.4,8.3-18.5,8.7-28,9-9.4.3-34.2-.3-74-23.6-14.4-8.4-34.3-21.9-55-42.6l-12.7-9.3" fill="none" stroke="#1e1e1c" stroke-miterlimit="10" stroke-width="11"/>
  <path d="M1675.6,1699.2c-11.8.9-29,2.7-49.3,6.7-43.8,8.7-77.3,22.8-97.6,31.4-25.4,10.8-24.6,12.5-51.6,23.6-24.1,9.8-41.2,16.9-61.7,21.3-20.2,4.4-29,3.1-83,2.2-80.9-1.3-78.1,1.3-94.2-2.2-31.7-7-68.3-15.1-85.2-43.7-7.3-12.3-10.6-27.9-28-42.6-8-6.7-10.6-6.3-21.3-14.6-17.4-13.5-33.5-32.8-31.4-38.1,6.7-16.8,21,2.4,34.8,12.3,14.3,10.3,32.1,9.5,43.7,17.9,13.3,9.7,18.8,17.3,33.6,17.9,66.7,2.8,92,2.2,92,2.2,86.5-7.2,72.4-2,120-7.9,40-4.9,42.9-7.7,111-16.8,38.6-5.2,57.8-7.7,65-7.9,35.8-.6,53.8,5.3,77.4-6.7,6-3.1,19.2-10,26.9-24.7,6.7-12.8,6.8-26.4,6.7-30.3-.3-14.5-5.4-20.2-2.2-32.5,1.4-5.6,5.2-14.8,9-14.6,3.1.2,5.7,6.7,12.3,43.7,5.3,30,8,45.2,6.7,55-1.3,9.9-5.2,26.9-19.1,46l-9,15.7-5.6-13.5Z" fill="#d7c6e2" stroke="#1e1e1c" stroke-miterlimit="10" stroke-width="11"/>
  <polyline points="1260.6 1694.7 1266.2 1717.2 1279.7 1750.8 1296.5 1762 1316.7 1730.6 1330.2 1710.4 1347 1691.4" fill="#fceb7c" stroke="#1e1e1c" stroke-miterlimit="10" stroke-width="8"/>
  <polyline points="1463.6 1675.7 1483.8 1700.4 1496.1 1720.5 1501.7 1734 1511.8 1709.3 1508.5 1680.2 1516.3 1670.1" fill="#f3eb6e" stroke="#1e1e1c" stroke-miterlimit="10" stroke-width="8"/>
  <polyline points="1332.4 1784.5 1339.1 1753.1 1364.9 1728.4 1372.8 1718.3 1394.1 1771 1396.3 1784.5" fill="#d3bf63" stroke="#1e1e1c" stroke-miterlimit="10" stroke-width="8"/>
  <ellipse cx="1231" cy="1733.3" rx="32.1" ry="32.7" fill="#3bbee7" stroke="#1e1e1c" stroke-miterlimit="10"/>
  <path d="M1508.5,1386.3c1.2-26.1-1.3-35.3,3.4-56.1,1-4.5,4.3-18.3,12.3-34.8,8.7-17.7,15.3-31.4,29.2-38.1,9.8-4.7,14-1.6,35.9-2.2,30.7-.9,33.1-7.5,56.1-7.9,11.3-.2,36.2-.6,58.3,13.5,24.1,15.4,32.7,40.3,38.1,56.1,8.8,25.5,6.2,53.2,1.1,108.8-2.7,29.4-5.7,42.9-13.5,57.2-10.2,18.7-23.5,29.6-31.4,35.9-32.2,25.7-66.9,30.4-84.1,32.5-20.1,2.4-47.2,5.8-76.3-7.9-11.9-5.6-28.3-13.2-37-30.3-4.8-9.5-5.2-17.6,1.1-70.7,5.6-47,6.1-42.9,6.7-56.1Z" fill="#fff" stroke="#1e1e1c" stroke-miterlimit="10" stroke-width="11"/>
  <path d="M1345.9,1423.4c-3.8-36.5-6.6-63.4-23.6-84.1-4.4-5.4-15.7-12.3-38.1-25.8-27.9-16.9-48.8-29.3-79.6-43.7-42.5-19.8-59.6-22.6-70.7-23.6-17.1-1.5-32.5-2.9-42.6,6.7-12,11.4-3.2,25.5-11.2,61.7-3.5,15.9-8.7,27.8-19.1,51.6-9.6,22-18.5,38.2-24.7,49.3-22,39.7-25.8,37.6-32.5,56.1-5,13.7-14.9,41-4.5,68.4,7.2,19.1,20.8,29.1,39.3,42.6,10.9,8,45.9,31.9,96.4,35.9,26.8,2.1,46.8-2.3,51.6-3.4,19.7-4.5,20.1-8.6,43.7-16.8,31.3-10.9,64-15.2,84.1-17.9,27.4-3.7,35.1-2.8,40.4-10.1,7.3-10.2-2.1-19.9-5.6-55-1.9-18.5.5-18.5-1.1-56.1-.6-14.8-1-24.3-2.2-35.9Z" fill="#fff" stroke="#1e1e1c" stroke-miterlimit="10" stroke-width="6"/>
  <path d="M1519.9,1312.3c-.7,15.2,8.5,2.5,51.5,20.9,19.6,8.4,38,8,60.7,19.9,27.3,14.3,114.6,39.4,113.2,13.6-1-18.5-3.1-43.5-9.5-58.8-4.4-10.6-7.5-26.1-22.6-37.9-13.8-10.8-39.8-21.3-50.3-21.5-16.3-.4.2-2.3-28.9,2-33.2,4.9-62.7,3-77.7,9.7-11.1,5-12.8,9.9-16,13.1-3.4,3.4-19.9,27.7-20.4,38.9Z" fill="#aeca16"/>
  <path d="M1348.5,1472.6c1.7-28.6-5.7-91.3-22.8-119.9-13.4-22.5-27.1-24.7-37.1-32.5-19.1-14.9-22-16.9-70.2-41-34.8-17.5-45.9-20.3-69.4-26.3-37.3-9.4-47.4.6-50.5,1.7-12.2,4.2-4.9,6.6-9.3,28.8-7.7,38.3-7.9,42.1-12.5,55.3-2.9,8.2-8.1,18.4-18.5,38.7-15.7,30.6-18,31.5-16.8,35.3,5.2,17.3,53.7,7.6,132.9,21.9,10.3,1.8,3.2.9,75.7,16.8,72.4,15.9,97.9,32.7,98.6,21.2Z" fill="#aeca16" stroke="#1e1e1c" stroke-miterlimit="10" stroke-width="6"/>
  <path d="M1511.1,1314.6c26.1,9.7,44.8,16,61.3,20.2,37.5,9.4,64.6,16.2,100.9,14.6,23.9-1.1,45-5.5,56.1-7.9,18.2-3.9,33.5-8.5,44.9-12.3" fill="none" stroke="#1e1e1c" stroke-miterlimit="10" stroke-width="11"/>
  <path d="M1341.4,1474.9c-38.7-8.2-82-17.3-133.5-28-26.7-5.6-55.6-11.6-94.2-17.9-20.5-3.4-36.7-5.7-44.8-6.8,0,0-36.9-5.2-74.1-8.9-74.5-7.4-153.5-8.7-171.6-9" fill="none" stroke="#1e1e1c" stroke-miterlimit="10" stroke-width="11"/>
  <path d="M1082.7,1425.2c-17.3-9.8-51.9-36.6-71-50.1-24.1-17-45-34.2-62.8-50.5" fill="none" stroke="#1e1e1c" stroke-miterlimit="10" stroke-width="11"/>
  <path d="M1584.7,1341.5c17.4,5.9,41.1,13.3,69.5,20.2,23,5.6,53.1,12.8,93.1,16.8,22.4,2.3,52.2,3.9,87.5,2.2" fill="none" stroke="#1e1e1c" stroke-miterlimit="10" stroke-width="11"/>
  <path d="M1518.6,1347.1c1.6-.3,1.7,6.7,6.7,9,6,2.7,12.7-4.3,26.9-11.2,3.8-1.9,12.5-6.1,21.3-7.9,13.7-2.7,36.5-1,48.2,14.6,5.3,7.1,9.2,18.9,4.5,28-4.5,8.9-15,11.3-24.7,13.5-14.9,3.4-26.6,1.2-43.7-2.2-20.8-4.2-31.3-6.4-37-14.6-8.1-11.6-4.6-28.7-2.2-29.2Z" fill="none" stroke="#1e1e1c" stroke-miterlimit="10" stroke-width="11"/>
  <path d="M1539.9,1357.2c6.1,15.3,21.1,21.2,30.3,16.8,8.9-4.3,10-17.2,10.1-17.9" fill="none" stroke="#1e1e1c" stroke-miterlimit="10" stroke-width="11"/>
  <path d="M1336.9,1552.3c-18.9,18.5-69.7-5-97.6-25.8-13.4-10-31.9-24.1-30.3-41.5,1.1-11.9,11.3-19.9,14.6-22.4,31.7-24.8,100.4-13.9,117.8,23.6,7.8,16.8,4.8,38,4.5,40.4-1.6,11.1-2.9,19.9-9,25.8Z" fill="none" stroke="#1e1e1c" stroke-miterlimit="10" stroke-width="11"/>
  <path d="M1333.5,1486.2c-4.2-4-11.3,1.6-30.3,2.9-5,.4-10.8,0-22.4-.7-33.3-2-41.4-5.3-46,0-4.2,4.9-4,15.5,1.1,21.3,10.7,12.2,32.8-7.7,69.5,1.1,8.2,2,15.1,4.8,21.3,1.1,8.8-5.2,11.9-20.9,6.7-25.8Z" fill="none" stroke="#1e1e1c" stroke-miterlimit="10" stroke-width="11"/>
  <path d="M1266.2,1489.5c17.4,12.4,22.6,18.6,21.3,21.3-1.4,2.9-10.1,1.5-10.1,1.1,0-.5,15.8,1.8,23.6-6.7,3.7-4.1,4.4-9.6,4.5-13.5" fill="none" stroke="#1e1e1c" stroke-miterlimit="10" stroke-width="6"/>
  <ellipse cx="1409.2" cy="1579.8" rx="10.7" ry="11.8" fill="#1e1e1c"/>
  <ellipse cx="1464.2" cy="1586.5" rx="8.4" ry="7.3" fill="#1e1e1c"/>
  <path d="M1506.2,1036.4c7-10.1,17.7-24.5,32.5-40.4,23.9-25.7,48.5-44.6,50.5-42.6,1.4,1.4-11,10.6-16.8,29.2-1.5,4.8-9.4,30,4.5,46,11.7,13.5,32.4,12.6,38.1,12.3,15.2-.7,17-7,37-7.9,4.5-.2,9.9,0,15.7-3.4,1.1-.6,10-5.8,11.2-14.6,1-7.1-3.4-13.5-3.4-13.5,0,0,5.6,27.3,21.3,32.5,10.4,3.5,21.9-3.8,24.7-5.6,8.8-5.6,12.9-13.3,14.6-16.8" fill="none" stroke="#1e1e1c" stroke-miterlimit="10" stroke-width="11"/>
  <path d="M1643,1120.6c21.3,9.6,40.4,1.9,49.3,1.1,7.3-.6,3.4-1.3,34.8-7.9,11.4-2.4,15.3-3,19.1-6.7,9.7-9.7,7.3-29.8,4.5-30.3-2.6-.5-10.5,14.5-5.6,21.3,4.8,6.7,19.6,2.4,20.2,2.2,9-2.7,14.2-9,16.8-12.3,10.7-13.4,13.9-32.9,10.1-34.8-3.3-1.6-15.3,8-14.6,19.1.6,9.7,10.6,18.6,23.6,17.9" fill="none" stroke="#1e1e1c" stroke-miterlimit="10" stroke-width="11"/>
  <path d="M1339.1,1042.1c-58.9,17.4-74.7,5-79.6-1.1-4.9-6.1-8.7-17.8-12.3-29.2-4.7-14.5-5.1-22-12.3-31.4-4.5-5.8-9.2-9.3-13.5-12.3-13.3-9.7-17.3-6.7-28-14.6-4.5-3.3-10.1-10.1-21.3-23.6-9.3-11.2-7.9-10.5-10.1-12.3-16.2-13.6-41.4-9.6-44.9-9-13.6,2.4-17.3,7.4-24.7,4.5-8.8-3.4-15.3-15-12.3-21.3,4-8.5,23.7-4.2,24.7-9,.9-4.4-14.5-15.1-23.6-11.2-15.4,6.6-7.3,52.8-6.7,56.1" fill="none" stroke="#1e1e1c" stroke-miterlimit="10" stroke-width="11"/>
  <path d="M1121.6,1093.6c-24.5,3.7-74.8,7.9-104.3-19.1-5.8-5.3-20.5-18.7-16.8-29.2,2.3-6.5,11.5-11.4,15.7-9,5.3,3,3.7,18,0,19.1-4.5,1.2-8.2-18.8-29.2-44.9-13.7-17-21.7-27-33.6-32.5-2.9-1.4-7.5-3.1-11.2-7.9-6.3-8.1-3.1-16-7.9-19.1-6.7-4.4-20.9,6.2-21.3,5.6-.5-.9,31.9-13,34.8-32.5,2.2-15.3-14.6-29.2-21.3-34.8-3.3-2.7-32.4-26.8-51.6-14.6-9,5.7-16.6,19.9-11.2,32.5,3.9,9.1,13.5,15.2,24.7,15.7" fill="none" stroke="#1e1e1c" stroke-miterlimit="10" stroke-width="11"/>
  <path d="M1020.6,1202.4c-34.8,3.1-56.2-5-69.5-13.5-15.3-9.8-30.9-19.1-46-29.2-3.8-2.5-12-8-23.6-9-8.3-.7-14.7,1.2-17.9,2.2-20.5,6.4-32.2,24.1-35.9,30.3" fill="none" stroke="#1e1e1c" stroke-miterlimit="10" stroke-width="11"/>
  <path d="M1506.2,1241.7c20.8-5.9,36.7-12.8,47.1-17.9,20.8-10.2,22.1-14.1,40.4-21.3,10.6-4.2,22-7.3,44.9-13.5,12.3-3.3,19-4.9,29.2-9,10.8-4.3,19.2-9,24.7-12.3" fill="none" stroke="#1e1e1c" stroke-miterlimit="10" stroke-width="6"/>
  <path d="M1371.6,1292.1c-12-10.5-28.6-23.9-49.3-38.1-25.7-17.6-46.2-28.3-67.3-39.3-24.6-12.8-11.1-4.2-66.2-29.2-11.5-5.2-25.3-11.5-41.5-9-4.8.8-7.6,1.9-16.8,3.4-14.5,2.2-21.4,1.5-28,2.2-9,1.1-21.5,5.6-35.9,21.3" fill="none" stroke="#1e1e1c" stroke-miterlimit="10" stroke-width="6"/>
  <path d="M1518.9,1744.1" fill="none" stroke="#fff" stroke-miterlimit="10" stroke-width="5"/>
  <path d="M1518,1666.7" fill="none" stroke="#fff" stroke-miterlimit="10" stroke-width="5"/>
  <path d="M1565.3,1696.8" fill="none" stroke="#fff" stroke-miterlimit="10" stroke-width="5"/>
  <path d="M1491.4,1700.2" fill="none" stroke="#fff" stroke-miterlimit="10" stroke-width="5"/>
  <path d="M1488.8,1720" fill="none" stroke="#fff" stroke-miterlimit="10" stroke-width="5"/>
  <path d="M1550.7,1680.5" fill="none" stroke="#fff" stroke-miterlimit="10" stroke-width="5"/>
  <path d="M1533.5,1718.3" fill="none" stroke="#fff" stroke-miterlimit="10" stroke-width="5"/>
  <path d="M1508.6,1683.9" fill="none" stroke="#fff" stroke-miterlimit="10" stroke-width="5"/>
  <path d="M1561,1731.2" fill="none" stroke="#fff" stroke-miterlimit="10" stroke-width="5"/>
  <path d="M1494,1680.5" fill="none" stroke="#fff" stroke-miterlimit="10" stroke-width="5"/>
  <ellipse cx="1293.7" cy="1500.2" rx="11.8" ry="14.3" fill="#1e1e1c"/>
  <ellipse cx="1566.2" cy="1357.2" rx="14.3" ry="16" fill="#1e1e1c"/>
  <line x1="1589" y1="1331.7" x2="1589.8" y2="1409.1" fill="none" stroke="#fff" stroke-miterlimit="10" stroke-width="3"/>
  <line x1="1562.3" y1="1365.2" x2="1636.3" y2="1361.8" fill="none" stroke="#fff" stroke-miterlimit="10" stroke-width="3"/>
  <line x1="1621.7" y1="1345.4" x2="1559.7" y2="1385" fill="none" stroke="#fff" stroke-miterlimit="10" stroke-width="3"/>
  <line x1="1579.5" y1="1348.9" x2="1604.5" y2="1383.3" fill="none" stroke="#fff" stroke-miterlimit="10"/>
  <line x1="1564.9" y1="1345.4" x2="1632" y2="1396.2" fill="none" stroke="#fff" stroke-miterlimit="10" stroke-width="3"/>
  <line x1="1271.7" y1="1464.7" x2="1272.5" y2="1542" fill="none" stroke="#fff" stroke-miterlimit="10" stroke-width="3"/>
  <line x1="1245" y1="1498.2" x2="1318.9" y2="1494.8" fill="none" stroke="#fff" stroke-miterlimit="10" stroke-width="3"/>
  <line x1="1304.3" y1="1478.4" x2="1242.4" y2="1518" fill="none" stroke="#fff" stroke-miterlimit="10" stroke-width="3"/>
  <line x1="1262.2" y1="1481.9" x2="1287.1" y2="1516.2" fill="none" stroke="#fff" stroke-miterlimit="10" stroke-width="3"/>
  <line x1="1247.6" y1="1478.4" x2="1314.6" y2="1529.1" fill="none" stroke="#fff" stroke-miterlimit="10" stroke-width="3"/>
  <line x1="1502.1" y1="1669.5" x2="1502.5" y2="1707.8" fill="none" stroke="#fff" stroke-miterlimit="10" stroke-width="3"/>
  <line x1="1488.9" y1="1686.1" x2="1525.5" y2="1684.4" fill="none" stroke="#fff" stroke-miterlimit="10" stroke-width="3"/>
  <line x1="1518.3" y1="1676.3" x2="1487.6" y2="1695.9" fill="none" stroke="#fff" stroke-miterlimit="10" stroke-width="3"/>
  <line x1="1497.4" y1="1678" x2="1509.8" y2="1695.1" fill="none" stroke="#fff" stroke-miterlimit="10" stroke-width="3"/>
  <line x1="1490.2" y1="1676.3" x2="1523.4" y2="1701.4" fill="none" stroke="#fff" stroke-miterlimit="10" stroke-width="3"/>
  <line x1="1374.2" y1="1721.1" x2="1374.6" y2="1755.4" fill="none" stroke="#fff" stroke-miterlimit="10" stroke-width="3"/>
  <line x1="1362.4" y1="1736" x2="1395.2" y2="1734.4" fill="none" stroke="#fff" stroke-miterlimit="10" stroke-width="3"/>
  <line x1="1388.7" y1="1727.2" x2="1361.3" y2="1744.7" fill="none" stroke="#fff" stroke-miterlimit="10" stroke-width="3"/>
  <line x1="1370.1" y1="1728.7" x2="1381.1" y2="1744" fill="none" stroke="#fff" stroke-miterlimit="10" stroke-width="3"/>
  <line x1="1363.6" y1="1727.2" x2="1393.3" y2="1749.7" fill="none" stroke="#fff" stroke-miterlimit="10" stroke-width="3"/>
  <line x1="1371.8" y1="1028" x2="1372.7" y2="1105.4" fill="none" stroke="#fff" stroke-miterlimit="10" stroke-width="3"/>
  <line x1="1345.2" y1="1061.6" x2="1419.1" y2="1058.1" fill="none" stroke="#fff" stroke-miterlimit="10" stroke-width="3"/>
  <line x1="1404.5" y1="1041.8" x2="1342.6" y2="1081.3" fill="none" stroke="#fff" stroke-miterlimit="10" stroke-width="3"/>
  <line x1="1362.4" y1="1045.2" x2="1387.3" y2="1079.6" fill="none" stroke="#fff" stroke-miterlimit="10" stroke-width="3"/>
  <line x1="1347.8" y1="1041.8" x2="1414.8" y2="1092.5" fill="none" stroke="#fff" stroke-miterlimit="10" stroke-width="3"/>
  <line x1="955.2" y1="1851.8" x2="956.1" y2="1929.1" fill="none" stroke="#fff" stroke-miterlimit="10" stroke-width="3"/>
  <line x1="1745.8" y1="1313.4" x2="1746.7" y2="1390.8" fill="none" stroke="#fff" stroke-miterlimit="10" stroke-width="3"/>
  <line x1="1719.2" y1="1347" x2="1793.1" y2="1343.5" fill="none" stroke="#fff" stroke-miterlimit="10" stroke-width="3"/>
  <line x1="1778.5" y1="1327.2" x2="1716.6" y2="1366.8" fill="none" stroke="#fff" stroke-miterlimit="10" stroke-width="3"/>
  <line x1="1736.4" y1="1330.6" x2="1761.3" y2="1365" fill="none" stroke="#fff" stroke-miterlimit="10" stroke-width="3"/>
  <line x1="1721.8" y1="1327.2" x2="1788.8" y2="1377.9" fill="none" stroke="#fff" stroke-miterlimit="10" stroke-width="3"/>
  <line x1="1022.5" y1="1363.9" x2="1023.4" y2="1441.3" fill="none" stroke="#fff" stroke-miterlimit="10" stroke-width="3"/>
  <line x1="995.8" y1="1397.4" x2="1069.8" y2="1394" fill="none" stroke="#fff" stroke-miterlimit="10" stroke-width="3"/>
  <line x1="1055.2" y1="1377.7" x2="993.3" y2="1417.2" fill="none" stroke="#fff" stroke-miterlimit="10" stroke-width="3"/>
  <line x1="1013" y1="1381.1" x2="1038" y2="1415.5" fill="none" stroke="#fff" stroke-miterlimit="10" stroke-width="3"/>
  <line x1="998.4" y1="1377.7" x2="1065.5" y2="1428.4" fill="none" stroke="#fff" stroke-miterlimit="10" stroke-width="3"/>
  <path d="M1544.3,1357c-1,1.5-2,3.1-2.9,4.6-2.5,4,.8,8.9,5.2,9,11.4.4,16.8-17,5.4-21.5s-10.7.8-13.3,5.2-.3,12.5,3.1,17.5c3.1-2.4,6.3-4.8,9.4-7.3-5.5-5.6-14.5-10.4-21.3-3.6s-1.9,18.8,3.9,24.1,16.2,6.5,22.4.6,5.7-15.6-.6-20.4-9.3-2.4-10,2.6c-1.2,7.9,1.4,15.8,8.6,20.1s17.4,3.4,22.5-3.1c2.4-3.1,3.3-7.4,1.1-10.9s-6.7-4.2-10.6-4.8-10.6-1.8-15.9-2.8-7.7-.8-9.5-3.8c-4-6.6-14.4-.6-10.4,6.1,5.4,8.9,16.8,9.3,26,10.9s5.6,1,8.4,1.5,3.5,1.5,2.2-1.5-1-1.4-3.3-1c-4.3.7-8.3-3-7.7-7.4l-10,2.6c3.8,3-2.1,4.9-4.9,2.8s-4-4.9-3.4-6.6c0,.2-1.4-1.3.8.3s2,1.8,3,2.8c4.7,4.7,13.4-1.5,9.4-7.3-1.1-1.5-1.9-4.2-3-5.4s-4-1.8-2.6-1.7l5.2,9c1-1.5,2-3.1,2.9-4.6,4.1-6.5-6.2-12.6-10.4-6.1h0Z" fill="#1e1e1c"/>
  <path d="M1330.2,1499c-3.9-5.2-9.8-9.2-16.7-7.8s-9.5,5.2-10.7,10.6,2.2,12,8.1,13.8c5.9,1.8,11.9-.4,16.1-4.7s8.7-11,6.4-17-7.8-8.2-13.1-8.8c-10.3-1.2-21.5,5.8-23.2,16.4l10-2.6c-1.6-2-3.2-4-4.8-6-4.8-6-13.3,2.5-8.5,8.5s3.2,4,4.8,6c2.7,3.4,9.3,1.6,10-2.6s1.9-5.1,4.6-6.5,6.6-2.4,8-.5-3.8,7.4-6.3,6.6-1-.2,0-.8c1.7-1,3.7,0,4.9,1.6,4.6,6.1,15,0,10.4-6.1h0Z" fill="#1e1e1c"/>
  <path d="M1536.2,1356c-2.9-.6-5.3-1.8-7.1-4.3l-2.2,8.2c5-3.5,10.3-5.2,16.4-5s6.5-3.9,5.8-7.6c-1.8-9.9-14.4-13.2-22.4-8.6s-10.5,19.4-8.2,29.2c2.7,11.3,14,18.1,24.2,10.5s7.4-8.1,8.6-13.3.2-14.1,3-20.4-.4-8.6-5.2-9c-9.5-.8-18.5,1.1-27.2,4.9s-.9,13.5,6.1,10.4,13.9-3.9,21.2-3.3l-5.2-9c-3.1,6.7-3,13.4-3.8,20.6s-4.4,14.7-8.7,9.2-2.7-11.9-1.2-15.9,6.6-6.5,7.4-2.1l5.8-7.6c-8.1-.3-15.9,2-22.5,6.6s-4.1,5.4-2.2,8.2c3.5,5,8.2,8.5,14.3,9.8s10.8-10,3.2-11.6h0Z" fill="#1e1e1c"/>
</svg>